<?xml version="1.0" encoding="UTF-8" standalone="no"?>
<!-- Created with Inkscape (http://www.inkscape.org/) -->

<svg
   xmlns:dc="http://purl.org/dc/elements/1.1/"
   xmlns:cc="http://creativecommons.org/ns#"
   xmlns:rdf="http://www.w3.org/1999/02/22-rdf-syntax-ns#"
   xmlns:svg="http://www.w3.org/2000/svg"
   xmlns="http://www.w3.org/2000/svg"
   xmlns:sodipodi="http://sodipodi.sourceforge.net/DTD/sodipodi-0.dtd"
   xmlns:inkscape="http://www.inkscape.org/namespaces/inkscape"
   id="svg2"
   version="1.1"
   inkscape:version="0.48.4 r9939"
   width="80"
   height="80"
   xml:space="preserve"
   sodipodi:docname="collaborate.svg"><metadata
     id="metadata8"><rdf:RDF><cc:Work
         rdf:about=""><dc:format>image/svg+xml</dc:format><dc:type
           rdf:resource="http://purl.org/dc/dcmitype/StillImage" /><dc:title></dc:title></cc:Work></rdf:RDF></metadata><defs
     id="defs6"><clipPath
       clipPathUnits="userSpaceOnUse"
       id="clipPath16"><path
         d="M 0,64 64,64 64,0 0,0 0,64 z"
         id="path18" /></clipPath><clipPath
       clipPathUnits="userSpaceOnUse"
       id="clipPath28"><path
         d="M 14.1819,48.8181 51,48.8181 51,12 l -36.8181,0 0,36.8181 z"
         id="path30" /></clipPath><clipPath
       clipPathUnits="userSpaceOnUse"
       id="clipPath68"><path
         d="m 12,48.1596 38.1595,0 0,-34.8983 -38.1595,0 0,34.8983 z"
         id="path70" /></clipPath></defs><sodipodi:namedview
     pagecolor="#ffffff"
     bordercolor="#666666"
     borderopacity="1"
     objecttolerance="10"
     gridtolerance="10"
     guidetolerance="10"
     inkscape:pageopacity="0"
     inkscape:pageshadow="2"
     inkscape:window-width="640"
     inkscape:window-height="481"
     id="namedview4"
     showgrid="false"
     inkscape:zoom="2.085965"
     inkscape:cx="-25.558497"
     inkscape:cy="43.264584"
     inkscape:window-x="0"
     inkscape:window-y="24"
     inkscape:window-maximized="0"
     inkscape:current-layer="g14" /><g
     id="g10"
     inkscape:groupmode="layer"
     inkscape:label="Elegant_circle-icons_3"
     transform="matrix(1.25,0,0,-1.25,0,80)"><g
       id="g12"><g
         id="g14"
         clip-path="url(#clipPath16)"><g
           id="g24"><g
             id="g26" /><g
             id="g32"><g
               clip-path="url(#clipPath28)"
               id="g34"
               opacity="0.199997"><g
                 transform="translate(45.2926,12.5113)"
                 id="g36"><path
                   d="m 0,0 5.196,5.196 c 0.861,0.861 0.609,2.509 -0.562,3.68 l -3.536,3.536 -0.707,0.707 -18.86,18.859 -8.428,2.886 -4.214,1.443 1.443,-4.214 2.886,-8.428 L -7.923,4.805 -7.216,4.098 -3.68,0.562 C -2.509,-0.609 -0.861,-0.861 0,0"
                   style="fill:#231f20;fill-opacity:1;fill-rule:nonzero;stroke:none"
                   id="path38" /></g></g></g></g><g
           id="g40"
           transform="translate(37.3698,19.6802)"
           style="fill:#343f51"><path
             d="m 0,0 c -1.172,1.172 -1.423,2.819 -0.562,3.68 l 5.196,5.196 c 0.86,0.861 2.508,0.609 3.68,-0.562 L 12.556,4.071 C 13.728,2.899 13.98,1.252 13.119,0.391 L 7.923,-4.805 C 7.062,-5.666 5.414,-5.414 4.243,-4.243 L 0,0 z"
             style="fill:#343f51;fill-opacity:1;fill-rule:nonzero;stroke:none"
             id="path42" /></g><g
           id="g44"
           transform="translate(24.7456,44.775)"
           style="fill:#fbad17"><path
             d="M 0,0 2.078,2.078 21.645,-17.488 19.567,-19.567 0,0 z"
             style="fill:#fbad17;fill-opacity:1;fill-rule:nonzero;stroke:none"
             id="path46" /></g><g
           id="g48"
           transform="translate(19.1745,42.0324)"
           style="fill:#fbad17"><path
             d="M 0,0 4.157,4.157 25.138,-16.824 20.981,-20.981 0,0 z"
             style="fill:#fbad17;fill-opacity:1;fill-rule:nonzero;stroke:none"
             id="path50" /></g><g
           id="g52"
           transform="translate(18.5103,38.5397)"
           style="fill:#fbad17"><path
             d="M 0,0 2.078,2.078 21.645,-17.488 19.567,-19.567 0,0 z"
             style="fill:#fbad17;fill-opacity:1;fill-rule:nonzero;stroke:none"
             id="path54" /></g><g
           id="g56"
           transform="translate(14.1819,51.1819)"
           style="fill:#343f51"><path
             d="M 0,0 1.443,-4.214 4.214,-1.443 0,0 z"
             style="fill:#343f51;fill-opacity:1;fill-rule:nonzero;stroke:none"
             id="path58" /></g><g
           id="g60"
           transform="translate(26.824,46.8534)"><path
             d="m 0,0 -8.428,2.886 -2.771,-2.772 2.885,-8.428 1.039,1.039 2.454,-0.375 -0.75,4.907 4.907,-0.75 -0.375,2.454 L 0,0 z"
             style="fill:#f5cf87;fill-opacity:1;fill-rule:nonzero;stroke:none"
             id="path62" /></g><g
           id="g64"
           style="fill:#343f51"><g
             id="g66"
             style="fill:#343f51" /><g
             id="g72"
             style="fill:#343f51"><g
               clip-path="url(#clipPath68)"
               id="g74"
               opacity="0.199997"
               style="fill:#343f51"><g
                 transform="translate(49.8654,47.8655)"
                 id="g76"
                 style="fill:#343f51"><path
                   d="m 0,0 c -1.933,1.933 -13.04,-6.04 -19.874,-12.874 -3.363,-3.363 -5.058,-5.82 -5.689,-7.682 -2.109,0.205 -4.403,-0.572 -5.914,-2.082 -0.968,-0.968 -1.498,-2.042 -1.894,-3.203 -0.761,-2.231 -1.494,-5.025 -4.494,-7.014 2.236,-2.237 10.984,-2.865 15.227,1.378 0.448,0.448 0.831,0.967 1.144,1.529 0.74,1.328 1.067,2.898 0.925,4.379 1.863,0.628 4.324,2.324 7.695,5.695 C -6.04,-13.04 1.933,-1.933 0,0"
                   style="fill:#343f51;fill-opacity:1;fill-rule:nonzero;stroke:none"
                   id="path78" /></g></g></g></g><g
           id="g80"
           transform="translate(29.9911,36.9911)"
           style="fill:#343f51"><path
             d="M 0,0 C -6.834,-6.834 -6.807,-9.941 -4.874,-11.874 -2.941,-13.807 0.166,-13.834 7,-7 13.834,-0.166 21.807,10.941 19.874,12.874 17.941,14.807 6.834,6.834 0,0"
             style="fill:#343f51;fill-opacity:1;fill-rule:nonzero;stroke:none"
             id="path82" /></g><g
           id="g84"
           transform="translate(12.191758,16.818442)"
           style="fill:#fbad17"><path
             d="m 0,0 c 2.236,-2.237 10.984,-2.865 15.227,1.378 0.449,0.449 0.831,0.967 1.144,1.529 C 9.734,3.105 6.226,5.315 4.495,7.015 3.733,4.783 3,1.99 0,0"
             style="fill:#fbad17;fill-opacity:1;fill-rule:nonzero;stroke:none"
             id="path86"
             inkscape:connector-curvature="0" /></g><g
           id="g88"
           transform="translate(27.7574,27.7574)"
           style="fill:#12addd"><path
             d="m 0,0 c -2.441,2.441 -6.928,1.91 -9.369,-0.53 -0.968,-0.968 -1.498,-2.042 -1.894,-3.202 1.732,-1.7 5.131,-6.942 11.877,-4.108 C 2.004,-5.347 1.992,-1.992 0,0"
             style="fill:#12addd;fill-opacity:1;fill-rule:nonzero;stroke:none"
             id="path90" /></g><g
           id="g92"
           transform="translate(16.4946,24.025)"
           style="fill:#fbad17"><path
             d="m 0,0 c 0,0 4.022,0.764 5.938,-2.059 1.917,-2.823 5.939,-2.049 5.939,-2.049 L 6.672,-6.983 1.464,-3.192 0,0 z"
             style="fill:#fbad17;fill-opacity:1;fill-rule:nonzero;stroke:none"
             id="path94" /></g></g></g></g></svg>