<?xml version="1.0" encoding="UTF-8" standalone="no"?>
<!-- Created with Inkscape (http://www.inkscape.org/) -->

<svg
   xmlns:dc="http://purl.org/dc/elements/1.1/"
   xmlns:cc="http://creativecommons.org/ns#"
   xmlns:rdf="http://www.w3.org/1999/02/22-rdf-syntax-ns#"
   xmlns:svg="http://www.w3.org/2000/svg"
   xmlns="http://www.w3.org/2000/svg"
   xmlns:sodipodi="http://sodipodi.sourceforge.net/DTD/sodipodi-0.dtd"
   xmlns:inkscape="http://www.inkscape.org/namespaces/inkscape"
   width="853.89758"
   height="136.95052"
   id="svg4025"
   version="1.1"
   inkscape:version="0.48.4 r9939"
   sodipodi:docname="logo-lg (copy).svg"
   inkscape:export-filename="/media/uv/data/borg/hackercafe/design/logo-lg.png"
   inkscape:export-xdpi="90"
   inkscape:export-ydpi="90">
  <defs
     id="defs4027" />
  <sodipodi:namedview
     id="base"
     pagecolor="#ffffff"
     bordercolor="#666666"
     borderopacity="1.0"
     inkscape:pageopacity="0"
     inkscape:pageshadow="2"
     inkscape:zoom="1"
     inkscape:cx="323.67611"
     inkscape:cy="86.001456"
     inkscape:document-units="px"
     inkscape:current-layer="text3823"
     showgrid="true"
     inkscape:window-width="1364"
     inkscape:window-height="714"
     inkscape:window-x="0"
     inkscape:window-y="24"
     inkscape:window-maximized="1"
     fit-margin-top="0"
     fit-margin-left="0"
     fit-margin-right="0"
     fit-margin-bottom="0"
     units="ft">
    <inkscape:grid
       type="xygrid"
       id="grid4270"
       empspacing="5"
       visible="true"
       enabled="true"
       snapvisiblegridlinesonly="true"
       spacingx="25px"
       spacingy="25px"
       originx="72.167972px"
       originy="76.110459px" />
  </sodipodi:namedview>
  <metadata
     id="metadata4030">
    <rdf:RDF>
      <cc:Work
         rdf:about="">
        <dc:format>image/svg+xml</dc:format>
        <dc:type
           rdf:resource="http://purl.org/dc/dcmitype/StillImage" />
        <dc:title></dc:title>
      </cc:Work>
    </rdf:RDF>
  </metadata>
  <g
     inkscape:label="Layer 1"
     inkscape:groupmode="layer"
     id="layer1"
     transform="translate(72.167972,-991.52244)">
    <g
       id="layer1-5"
       inkscape:label="Layer 1" />
    <flowRoot
       xml:space="preserve"
       id="flowRoot3815"
       style="font-size:15.87021542px;font-style:normal;font-variant:normal;font-weight:normal;font-stretch:normal;text-align:start;line-height:120.00000477%;letter-spacing:0px;word-spacing:0px;writing-mode:lr-tb;text-anchor:start;fill:#000000;fill-opacity:1;stroke:none;font-family:Open Sans;-inkscape-font-specification:Open Sans"
       transform="translate(-47.70933,998.3734)"><flowRegion
         id="flowRegion3817"><rect
           id="rect3819"
           width="134"
           height="273"
           x="-221"
           y="-93.774254" /></flowRegion><flowPara
         id="flowPara3821" /></flowRoot>    <g
       style="font-size:189.50990295px;font-style:normal;font-variant:normal;font-weight:bold;font-stretch:normal;text-align:start;line-height:120.00000477%;letter-spacing:-7.58039665px;word-spacing:0px;writing-mode:lr-tb;text-anchor:start;fill:#343f51;fill-opacity:1;stroke:none;font-family:Nunito;-inkscape-font-specification:Nunito Bold"
       id="text3823">
      <path
         d="m -42.649584,1052.9651 c 1.110368,-2.961 2.683447,-5.6753 4.719241,-8.143 2.097393,-2.5292 4.534123,-4.6883 7.310196,-6.4774 2.837658,-1.7889 5.983816,-3.1769 9.438481,-4.164 3.454543,-0.987 7.12506,-1.4805 11.011562,-1.4806 4.0097359,10e-5 7.8653209,0.7404 11.5667668,2.2209 3.7629666,1.4189 7.094192,3.578 9.9936862,6.4773 2.899306,2.8378 5.212657,6.4158 6.94006,10.734 1.727201,4.3183 2.590852,9.3769 2.590956,15.1756 l -0.09253,41.8254 c -1.04e-4,5.8605 -1.203047,10.3639 -3.608832,13.51 -2.344295,3.1462 -6.26157,4.7192 -11.7518344,4.7192 -5.18199461,0 -8.8525115,-1.573 -11.0115618,-4.7192 -2.0975156,-3.1461 -3.1462347,-7.6495 -3.1461605,-13.51 l 0,-40.5299 c -7.42e-5,-2.8994 -0.401055,-5.4286 -1.2029437,-7.5878 -0.7403456,-2.2208 -1.7890646,-4.0715 -3.1461606,-5.5521 -1.295546,-1.4804 -2.868625,-2.5909 -4.719241,-3.3312 -1.850746,-0.7402 -3.824805,-1.1103 -5.922184,-1.1104 -2.529323,10e-5 -4.935208,0.4319 -7.217662,1.2955 -2.282559,0.802 -4.287463,2.0358 -6.014719,3.7013 -1.727348,1.6657 -3.115359,3.7632 -4.164036,6.2924 -0.987072,2.4676 -1.480586,5.3978 -1.480546,8.7907 l 0,38.0315 c -4e-5,5.8605 -1.202983,10.3639 -3.608831,13.51 -2.344233,3.1462 -6.261507,4.7192 -11.751835,4.7192 -5.181931,0 -8.852448,-1.573 -11.011562,-4.7192 -2.097452,-3.1461 -3.146171,-7.6495 -3.14616,-13.51 l -0.09253,-97.9011 c -1.1e-5,-5.8604 1.048708,-10.3637 3.14616,-13.50997 2.159114,-3.14603 5.829631,-4.71911 11.011562,-4.71924 5.490328,1.3e-4 9.407602,1.57321 11.751835,4.71924 2.405848,3.14627 3.608791,7.64957 3.608831,13.50997 l 0,41.7329"
         style="line-height:120.00000477000000387%;fill:#ffffff;font-family:Nunito;-inkscape-font-specification:Nunito Bold"
         id="path2991" />
      <path
         d="m 87.301653,1066.4751 c -6.6e-5,-5.1819 -1.388077,-8.8524 -4.164036,-11.0116 -2.714394,-2.159 -6.38491,-3.2386 -11.011562,-3.2387 -2.776072,10e-5 -5.367025,0.1543 -7.772867,0.4627 -2.405928,0.3085 -4.688434,0.7095 -6.847526,1.2029 -2.097474,0.4319 -4.102378,0.8946 -6.014718,1.3881 -1.9124,0.4935 -3.732237,0.9562 -5.459514,1.388 -1.41888,0.3702 -2.683512,0.5552 -3.793899,0.5552 -2.03577,0 -3.886451,-0.6477 -5.552048,-1.9432 -1.603939,-1.3571 -2.405901,-3.2078 -2.405888,-5.5521 -1.3e-5,-2.2824 0.586036,-4.2873 1.758149,-6.0147 1.172083,-1.7272 2.745162,-3.2078 4.71924,-4.4416 2.03573,-1.2954 4.379926,-2.3442 7.032594,-3.1462 2.652617,-0.8636 5.428638,-1.5421 8.328072,-2.0358 2.961055,-0.4934 5.983834,-0.8327 9.068345,-1.0178 3.084425,-0.2467 6.045514,-0.3701 8.883277,-0.3702 5.922126,10e-5 11.35079,0.6787 16.286007,2.0358 4.93508,1.2956 9.160801,3.4855 12.677181,6.5699 3.5779,3.0846 6.35392,7.1252 8.32807,12.122 2.03566,4.9969 3.05353,11.135 3.05362,18.4143 l 0,37.0136 c -9e-5,2.4059 -0.15431,4.7193 -0.46267,6.9401 -0.30854,2.2208 -0.92543,4.1949 -1.85068,5.9222 -0.92543,1.7273 -2.25175,3.1153 -3.97897,4.164 -1.72739,0.987 -4.00989,1.4805 -6.84752,1.4805 -4.441717,0 -7.742098,-1.4497 -9.901155,-4.3491 -2.097508,-2.961 -3.146228,-7.1559 -3.146161,-12.5846 -1.60399,3.1462 -3.578049,5.8605 -5.922184,8.143 -2.282567,2.2825 -4.811831,4.164 -7.587799,5.6446 -2.776075,1.4188 -5.737164,2.4676 -8.883277,3.1461 -3.084512,0.7403 -6.230669,1.1105 -9.438481,1.1105 -4.31829,0 -8.328099,-0.6169 -12.029437,-1.8507 -3.701385,-1.2955 -6.909232,-3.0845 -9.62355,-5.367 -2.652656,-2.3442 -4.750094,-5.1202 -6.292321,-8.3281 -1.480552,-3.2695 -2.220824,-6.9092 -2.220819,-10.919 -5e-6,-5.6137 1.172093,-10.4255 3.516297,-14.4353 2.344187,-4.0098 5.737102,-7.2793 10.178754,-9.8086 4.503305,-2.5293 9.962813,-4.3799 16.378542,-5.5521 6.477348,-1.172 13.849226,-1.7581 22.115657,-1.7581 l 8.883277,0 0,-3.979 m -0.09253,17.7665 c -4.194942,-0.1233 -8.358974,-0.062 -12.492108,0.1851 -4.13324,0.2468 -7.834602,0.9254 -11.104096,2.0358 -3.269578,1.0487 -5.922221,2.6218 -7.957935,4.7192 -1.974094,2.0975 -2.961124,4.9352 -2.961093,8.5131 -3.1e-5,1.9741 0.370105,3.7631 1.11041,5.367 0.74024,1.604 1.758114,2.992 3.053626,4.1641 1.357131,1.1721 2.93021,2.0666 4.719241,2.6834 1.850641,0.617 3.88639,0.9254 6.107253,0.9254 2.837664,0 5.428617,-0.4935 7.772867,-1.4806 2.405831,-1.0487 4.472425,-2.5292 6.199787,-4.4416 1.727242,-1.974 3.084408,-4.3491 4.071502,-7.1251 0.986965,-2.8377 1.48048,-6.0764 1.480546,-9.7161 l 0,-5.8297"
         style="line-height:120.00000477000000387%;fill:#ffffff;font-family:Nunito;-inkscape-font-specification:Nunito Bold"
         id="path2993" />
      <path
         d="m 119.77002,1080.4477 c -1e-5,-6.9708 1.26462,-13.3865 3.7939,-19.2471 2.52925,-5.8604 5.98385,-10.9189 10.36382,-15.1756 4.44161,-4.2564 9.65436,-7.5568 15.63827,-9.9011 6.04552,-2.4058 12.58459,-3.6087 19.61723,-3.6088 3.70131,10e-5 7.40267,0.3085 11.1041,0.9253 3.76298,0.617 7.12505,1.5732 10.08622,2.8686 3.0227,1.2955 5.45943,2.9611 7.3102,4.9968 1.91228,1.9742 2.86847,4.3492 2.86855,7.1251 -8e-5,2.7144 -0.89458,4.8736 -2.68349,6.4774 -1.72738,1.604 -3.9482,2.406 -6.66245,2.4059 -1.41894,10e-5 -2.89948,-0.1541 -4.44164,-0.4627 -1.54231,-0.3083 -3.14623,-0.6168 -4.81178,-0.9253 -1.60399,-0.3701 -3.20791,-0.7094 -4.81177,-1.0179 -1.60399,-0.3084 -3.14622,-0.4626 -4.62671,-0.4626 -3.14621,0 -6.1073,0.5552 -8.88327,1.6656 -2.77608,1.0488 -5.18196,2.6527 -7.21767,4.8117 -2.03579,2.1592 -3.67056,4.8427 -4.90431,8.0505 -1.17213,3.2079 -1.75818,6.971 -1.75814,11.2892 -4e-5,3.4546 0.46263,6.755 1.38801,9.9011 0.9253,3.1462 2.31331,5.9222 4.16403,8.3281 1.91233,2.3442 4.28737,4.2257 7.12513,5.6446 2.89935,1.4189 6.29227,2.1283 10.17876,2.1283 1.54217,0 3.17694,-0.1542 4.90431,-0.4627 1.78892,-0.3084 3.54707,-0.6477 5.27444,-1.0179 1.72723,-0.4318 3.42369,-0.8019 5.08938,-1.1104 1.72723,-0.3084 3.33115,-0.4626 4.81177,-0.4627 2.59088,10e-5 4.75,0.802 6.47739,2.4059 1.78891,1.5423 2.6834,3.6089 2.68349,6.1998 -9e-5,2.6527 -0.95627,5.0277 -2.86856,7.1251 -1.91245,2.0358 -4.44172,3.7631 -7.58779,5.182 -3.14624,1.4188 -6.75507,2.4984 -10.8265,3.2386 -4.00987,0.7403 -8.14306,1.1105 -12.39957,1.1105 -6.1073,0 -12.09117,-0.9871 -17.95162,-2.9611 -5.79884,-2.0358 -10.9499,-5.0277 -15.4532,-8.9758 -4.50335,-4.0098 -8.14302,-9.0067 -10.91903,-14.9906 -2.71434,-6.0455 -4.07151,-13.0781 -4.0715,-21.0978"
         style="line-height:120.00000477000000387%;fill:#ffffff;font-family:Nunito;-inkscape-font-specification:Nunito Bold"
         id="path2995" />
      <path
         d="m 236.23717,1070.8242 c 4.31821,-4.565 8.60562,-9.0991 12.86224,-13.6025 4.25651,-4.565 8.54393,-9.1608 12.86225,-13.7876 2.59088,-2.8993 5.27437,-5.3052 8.05047,-7.2177 2.83763,-1.9739 5.58281,-2.961 8.23553,-2.9611 1.66553,10e-5 3.3003,0.3394 4.90431,1.0179 1.60384,0.617 3.02269,1.4806 4.25657,2.591 1.29539,1.1105 2.31326,2.3751 3.05363,3.7939 0.80187,1.4189 1.20285,2.8995 1.20294,4.4416 -9e-5,1.8508 -0.61699,3.5164 -1.85068,4.9968 -1.23388,1.4807 -2.5602,2.8995 -3.97897,4.2566 -3.63976,3.4547 -7.31028,6.8476 -11.01156,10.1788 -3.63975,3.3313 -7.31027,6.755 -11.01156,10.2713 l 24.33648,29.5183 c 1.54214,1.8508 2.93015,3.7014 4.16403,5.5521 1.29538,1.8507 1.94312,3.6397 1.94322,5.367 -1e-4,1.6039 -0.37024,3.1153 -1.11041,4.5341 -0.67868,1.4189 -1.60402,2.6527 -2.77602,3.7014 -1.1722,1.0487 -2.52936,1.8815 -4.07151,2.4984 -1.48063,0.6169 -3.02287,0.9254 -4.6267,0.9254 -1.35725,0 -2.86864,-0.3393 -4.53418,-1.0179 -1.66569,-0.6786 -3.36215,-1.5731 -5.08937,-2.6835 -1.66569,-1.1721 -3.3313,-2.5292 -4.99685,-4.0715 -1.60399,-1.6039 -3.02285,-3.3312 -4.25657,-5.1819 -4.4417,-5.9839 -8.88333,-11.9369 -13.32491,-17.8591 -4.38,-5.9221 -8.79079,-11.8752 -13.23238,-17.8591 l 0,30.9064 c -4e-5,5.8605 -1.20299,10.3639 -3.60883,13.51 -2.34424,3.1462 -6.26151,4.7192 -11.75184,4.7192 -5.18193,0 -8.85245,-1.573 -11.01156,-4.7192 -2.09745,-3.1461 -3.14617,-7.6495 -3.14616,-13.51 l 0,-97.9011 c -1e-5,-5.8604 1.04871,-10.3637 3.14616,-13.50997 2.15911,-3.14603 5.82963,-4.71911 11.01156,-4.71924 5.49033,1.3e-4 9.4076,1.57321 11.75184,4.71924 2.40584,3.14627 3.60879,7.64957 3.60883,13.50997 l 0,59.592"
         style="line-height:120.00000477000000387%;fill:#ffffff;font-family:Nunito;-inkscape-font-specification:Nunito Bold"
         id="path2997" />
      <path
         d="m 386.73469,1077.7643 c -10e-5,2.5293 -0.83291,4.4108 -2.49842,5.6445 -1.66571,1.2339 -3.97906,1.8508 -6.94006,1.8507 l -57.27863,0 c 0.30841,7.4645 2.4367,13.2633 6.38486,17.3964 4.00976,4.0716 10.08617,6.1073 18.22922,6.1073 2.65258,0 5.12016,-0.1542 7.40273,-0.4627 2.34413,-0.3701 4.62664,-0.8328 6.84753,-1.388 2.22074,-0.6169 4.44156,-1.2955 6.66246,-2.0357 2.22073,-0.7403 4.53408,-1.5114 6.94006,-2.3134 0.80187,-0.3084 1.5113,-0.4626 2.12828,-0.4627 2.03566,10e-5 3.67043,0.802 4.90431,2.4059 1.23369,1.5423 1.85058,3.3621 1.85068,5.4595 -10e-5,1.2338 -0.21601,2.4059 -0.64774,3.5163 -1.23388,2.9611 -3.26963,5.4287 -6.10725,7.4028 -2.8378,1.9123 -6.10734,3.4546 -9.80862,4.6267 -3.70144,1.1104 -7.61871,1.8815 -11.75183,2.3133 -4.13326,0.4318 -8.08138,0.6478 -11.84437,0.6478 -7.09433,0 -13.72594,-1.0179 -19.89484,-3.0537 -6.10728,-2.0357 -11.41257,-5.0585 -15.91587,-9.0683 -4.50335,-4.0098 -8.05048,-9.0375 -10.64143,-15.0831 -2.52927,-6.0455 -3.7939,-13.0472 -3.7939,-21.0052 0,-6.6624 1.23378,-12.8931 3.70137,-18.6919 2.46756,-5.7988 5.89132,-10.8264 10.27129,-15.0831 4.44161,-4.2565 9.68521,-7.6185 15.7308,-10.0862 6.10721,-2.4675 12.80051,-3.7013 20.07991,-3.7014 7.89618,10e-5 14.71285,1.2339 20.45004,3.7014 5.73703,2.406 10.48712,5.6755 14.25026,9.8086 3.76296,4.0716 6.56982,8.8525 8.4206,14.3428 1.85058,5.4287 2.80677,11.1658 2.86856,17.2114 m -24.70661,-5.6446 c -0.18515,-3.2695 -0.7712,-6.2923 -1.75815,-9.0684 -0.92542,-2.7759 -2.28258,-5.1818 -4.0715,-7.2176 -1.72738,-2.0357 -3.8865,-3.6088 -6.47739,-4.7193 -2.52933,-1.172 -5.49042,-1.758 -8.88328,-1.7581 -3.08452,10e-5 -5.89139,0.6169 -8.4206,1.8507 -2.46763,1.1721 -4.62675,2.8069 -6.47739,4.9043 -1.78904,2.0358 -3.20789,4.4417 -4.25657,7.2176 -0.98707,2.7144 -1.57312,5.6447 -1.75815,8.7908 l 42.10303,0"
         style="line-height:120.00000477000000387%;fill:#ffffff;font-family:Nunito;-inkscape-font-specification:Nunito Bold"
         id="path2999" />
      <path
         d="m 422.92665,1109.1333 c -4e-5,5.8605 -1.20298,10.3639 -3.60883,13.51 -2.34423,3.1462 -6.2615,4.7192 -11.75183,4.7192 -5.18193,0 -8.85245,-1.573 -11.01156,-4.7192 -2.09746,-3.1461 -3.14618,-7.6495 -3.14616,-13.51 l 0,-61.0725 c -2e-5,-2.2824 0.40097,-4.2873 1.20294,-6.0147 0.86364,-1.7272 1.97405,-3.1461 3.33123,-4.2566 1.41884,-1.1103 3.02276,-1.974 4.81177,-2.5909 1.78897,-0.6168 3.6705,-0.9253 5.64458,-0.9254 4.81175,10e-5 8.42058,1.5423 10.8265,4.6267 2.46754,3.0846 3.70132,7.6804 3.70136,13.7876 1.04868,-6.2305 3.57795,-11.104 7.5878,-14.6204 4.00976,-3.5779 9.16082,-5.3669 15.4532,-5.367 1.91231,10e-5 3.60877,0.3394 5.08938,1.0179 1.48048,0.617 2.71426,1.4498 3.70137,2.4984 0.98695,1.0488 1.72722,2.2518 2.22081,3.6089 0.49344,1.3572 0.7402,2.7144 0.74028,4.0715 -8e-5,3.9482 -1.38809,6.8784 -4.16404,8.7907 -2.7144,1.8508 -6.38492,2.9303 -11.01156,3.2387 -2.77608,0.2468 -5.36703,0.7712 -7.77287,1.5731 -2.34425,0.802 -4.41084,2.005 -6.19978,3.6088 -1.72735,1.5423 -3.11536,3.5472 -4.16404,6.0147 -0.98707,2.4677 -1.48059,5.4904 -1.48055,9.0684 l 0,32.9421"
         style="line-height:120.00000477000000387%;fill:#ffffff;font-family:Nunito;-inkscape-font-specification:Nunito Bold"
         id="path3001" />
      <path
         d="m 451.27908,1080.4477 c -1e-5,-6.9708 1.26463,-13.3865 3.7939,-19.2471 2.52925,-5.8604 5.98386,-10.9189 10.36382,-15.1756 4.44162,-4.2564 9.65437,-7.5568 15.63827,-9.9011 6.04552,-2.4058 12.58459,-3.6087 19.61724,-3.6088 3.7013,10e-5 7.40266,0.3085 11.10409,0.9253 3.76299,0.617 7.12506,1.5732 10.08622,2.8686 3.0227,1.2955 5.45943,2.9611 7.3102,4.9968 1.91229,1.9742 2.86847,4.3492 2.86856,7.1251 -9e-5,2.7144 -0.89459,4.8736 -2.68349,6.4774 -1.72739,1.604 -3.94821,2.406 -6.66246,2.4059 -1.41893,10e-5 -2.89948,-0.1541 -4.44164,-0.4627 -1.54231,-0.3083 -3.14623,-0.6168 -4.81177,-0.9253 -1.60399,-0.3701 -3.20792,-0.7094 -4.81178,-1.0179 -1.60398,-0.3084 -3.14622,-0.4626 -4.6267,-0.4626 -3.14622,0 -6.10731,0.5552 -8.88328,1.6656 -2.77607,1.0488 -5.18196,2.6527 -7.21766,4.8117 -2.0358,2.1592 -3.67056,4.8427 -4.90431,8.0505 -1.17214,3.2079 -1.75819,6.971 -1.75815,11.2892 -4e-5,3.4546 0.46263,6.755 1.38801,9.9011 0.9253,3.1462 2.31331,5.9222 4.16404,8.3281 1.91233,2.3442 4.28737,4.2257 7.12513,5.6446 2.89935,1.4189 6.29226,2.1283 10.17875,2.1283 1.54217,0 3.17694,-0.1542 4.90431,-0.4627 1.78893,-0.3084 3.54707,-0.6477 5.27444,-1.0179 1.72724,-0.4318 3.42369,-0.8019 5.08938,-1.1104 1.72723,-0.3084 3.33115,-0.4626 4.81178,-0.4627 2.59087,10e-5 4.75,0.802 6.47739,2.4059 1.7889,1.5423 2.6834,3.6089 2.68349,6.1998 -9e-5,2.6527 -0.95628,5.0277 -2.86856,7.1251 -1.91246,2.0358 -4.44172,3.7631 -7.5878,5.182 -3.14624,1.4188 -6.75506,2.4984 -10.82649,3.2386 -4.00988,0.7403 -8.14307,1.1105 -12.39958,1.1105 -6.1073,0 -12.09117,-0.9871 -17.95162,-2.9611 -5.79884,-2.0358 -10.9499,-5.0277 -15.4532,-8.9758 -4.50335,-4.0098 -8.14302,-9.0067 -10.91903,-14.9906 -2.71434,-6.0455 -4.07151,-13.0781 -4.0715,-21.0978"
         style="line-height:120.00000477000000387%;fill:#ffffff;font-family:Nunito;-inkscape-font-specification:Nunito Bold"
         id="path3003" />
      <path
         d="m 599.36335,1066.4751 c -6e-5,-5.1819 -1.38807,-8.8524 -4.16403,-11.0116 -2.7144,-2.159 -6.38491,-3.2386 -11.01157,-3.2387 -2.77607,10e-5 -5.36702,0.1543 -7.77286,0.4627 -2.40593,0.3085 -4.68844,0.7095 -6.84753,1.2029 -2.09747,0.4319 -4.10238,0.8946 -6.01472,1.3881 -1.9124,0.4935 -3.73223,0.9562 -5.45951,1.388 -1.41888,0.3702 -2.68351,0.5552 -3.7939,0.5552 -2.03577,0 -3.88645,-0.6477 -5.55205,-1.9432 -1.60394,-1.3571 -2.4059,-3.2078 -2.40589,-5.5521 -10e-6,-2.2824 0.58604,-4.2873 1.75815,-6.0147 1.17209,-1.7272 2.74516,-3.2078 4.71924,-4.4416 2.03573,-1.2954 4.37993,-2.3442 7.0326,-3.1462 2.65261,-0.8636 5.42863,-1.5421 8.32807,-2.0358 2.96105,-0.4934 5.98383,-0.8327 9.06834,-1.0178 3.08443,-0.2467 6.04552,-0.3701 8.88328,-0.3702 5.92213,10e-5 11.35079,0.6787 16.28601,2.0358 4.93508,1.2956 9.1608,3.4855 12.67717,6.5699 3.57791,3.0846 6.35393,7.1252 8.32808,12.122 2.03566,4.9969 3.05353,11.135 3.05362,18.4143 l 0,37.0136 c -9e-5,2.4059 -0.15431,4.7193 -0.46267,6.9401 -0.30854,2.2208 -0.92543,4.1949 -1.85068,5.9222 -0.92543,1.7273 -2.25175,3.1153 -3.97897,4.164 -1.72739,0.987 -4.00989,1.4805 -6.84752,1.4805 -4.44172,0 -7.7421,-1.4497 -9.90116,-4.3491 -2.0975,-2.961 -3.14622,-7.1559 -3.14616,-12.5846 -1.60399,3.1462 -3.57805,5.8605 -5.92218,8.143 -2.28257,2.2825 -4.81183,4.164 -7.5878,5.6446 -2.77607,1.4188 -5.73716,2.4676 -8.88328,3.1461 -3.08451,0.7403 -6.23067,1.1105 -9.43848,1.1105 -4.31829,0 -8.3281,-0.6169 -12.02944,-1.8507 -3.70138,-1.2955 -6.90923,-3.0845 -9.62355,-5.367 -2.65265,-2.3442 -4.75009,-5.1202 -6.29232,-8.3281 -1.48055,-3.2695 -2.22082,-6.9092 -2.22082,-10.919 0,-5.6137 1.1721,-10.4255 3.5163,-14.4353 2.34419,-4.0098 5.7371,-7.2793 10.17876,-9.8086 4.5033,-2.5293 9.96281,-4.3799 16.37854,-5.5521 6.47735,-1.172 13.84922,-1.7581 22.11566,-1.7581 l 8.88327,0 0,-3.979 m -0.0925,17.7665 c -4.19494,-0.1233 -8.35898,-0.062 -12.49211,0.1851 -4.13324,0.2468 -7.8346,0.9254 -11.1041,2.0358 -3.26957,1.0487 -5.92222,2.6218 -7.95793,4.7192 -1.9741,2.0975 -2.96112,4.9352 -2.96109,8.5131 -3e-5,1.9741 0.3701,3.7631 1.11041,5.367 0.74024,1.604 1.75811,2.992 3.05362,4.1641 1.35713,1.1721 2.93021,2.0666 4.71924,2.6834 1.85064,0.617 3.88639,0.9254 6.10726,0.9254 2.83766,0 5.42861,-0.4935 7.77286,-1.4806 2.40583,-1.0487 4.47243,-2.5292 6.19979,-4.4416 1.72724,-1.974 3.08441,-4.3491 4.0715,-7.1251 0.98697,-2.8377 1.48048,-6.0764 1.48055,-9.7161 l 0,-5.8297"
         style="line-height:120.00000477000000387%;fill:#ffffff;font-family:Nunito;-inkscape-font-specification:Nunito Bold"
         id="path3005" />
      <path
         d="m 672.06181,1109.1333 c -5e-5,5.8605 -1.20299,10.3639 -3.60883,13.51 -2.34424,3.1462 -6.26151,4.7192 -11.75184,4.7192 -5.18193,0 -8.85245,-1.573 -11.01156,-4.7192 -2.09746,-3.1461 -3.14618,-7.6495 -3.14616,-13.51 l -0.0925,-58.0189 -4.62671,0 c -1.66562,10e-5 -3.2387,-0.1233 -4.71924,-0.3701 -1.48055,-0.3084 -2.77603,-0.8019 -3.88643,-1.4806 -1.04873,-0.6785 -1.91238,-1.5421 -2.59096,-2.5909 -0.61689,-1.1103 -0.92534,-2.4984 -0.92534,-4.1641 0,-2.3441 0.89449,-4.349 2.68349,-6.0147 1.78899,-1.7272 4.53416,-2.5908 8.23554,-2.5909 l 5.82965,0 0,-5.9222 c -2e-5,-6.4773 0.61687,-11.9985 1.85068,-16.5636 1.29546,-4.6266 3.23867,-8.4205 5.82965,-11.3817 2.59093,-2.96098 5.86046,-5.12011 9.80862,-6.47741 4.00977,-1.35703 8.75985,-2.03561 14.25026,-2.03575 2.83766,1.4e-4 5.61368,0.12352 8.32807,0.37014 2.77596,0.1852 5.24354,0.64787 7.40273,1.38801 2.22075,0.74041 4.00974,1.85082 5.36698,3.33123 1.35709,1.48068 2.03568,3.48558 2.03575,6.01468 -7e-5,2.7762 -0.83288,4.997 -2.49842,6.6625 -1.66569,1.6657 -4.04073,2.4985 -7.12513,2.4984 -0.74034,10e-5 -1.48061,10e-5 -2.22082,0 -0.74033,-0.062 -1.44976,-0.092 -2.12829,-0.093 -2.34425,1e-4 -4.25662,0.3085 -5.73711,0.9253 -1.41891,0.5553 -2.56016,1.5732 -3.42376,3.0537 -0.80202,1.4806 -1.35722,3.5164 -1.66562,6.1072 -0.30849,2.5294 -0.46272,5.7681 -0.46267,9.7161 l 0,2.4059 8.88328,0 c 1.35711,10e-5 2.68343,0.1851 3.97897,0.5552 1.29541,0.3085 2.43666,0.802 3.42376,1.4805 0.98696,0.6787 1.78893,1.5732 2.40589,2.6835 0.61682,1.0488 0.92527,2.3443 0.92534,3.8864 -7e-5,2.8995 -1.04879,5.0587 -3.14616,6.4774 -2.03582,1.419 -4.93522,2.1284 -8.69821,2.1283 l -7.77287,0 0,58.0189"
         style="line-height:120.00000477000000387%;fill:#ffffff;font-family:Nunito;-inkscape-font-specification:Nunito Bold"
         id="path3007" />
      <path
         d="m 781.7296,1077.7643 c -1.1e-4,2.5293 -0.83291,4.4108 -2.49843,5.6445 -1.66571,1.2339 -3.97906,1.8508 -6.94006,1.8507 l -57.27862,0 c 0.30841,7.4645 2.43669,13.2633 6.38485,17.3964 4.00977,4.0716 10.08617,6.1073 18.22923,6.1073 2.65258,0 5.12015,-0.1542 7.40273,-0.4627 2.34412,-0.3701 4.62663,-0.8328 6.84752,-1.388 2.22074,-0.6169 4.44156,-1.2955 6.66246,-2.0357 2.22073,-0.7403 4.53409,-1.5114 6.94006,-2.3134 0.80187,-0.3084 1.5113,-0.4626 2.12828,-0.4627 2.03566,10e-5 3.67043,0.802 4.90431,2.4059 1.23369,1.5423 1.85059,3.3621 1.85069,5.4595 -10e-5,1.2338 -0.21601,2.4059 -0.64774,3.5163 -1.23389,2.9611 -3.26964,5.4287 -6.10726,7.4028 -2.8378,1.9123 -6.10733,3.4546 -9.80861,4.6267 -3.70145,1.1104 -7.61872,1.8815 -11.75184,2.3133 -4.13326,0.4318 -8.08137,0.6478 -11.84437,0.6478 -7.09433,0 -13.72594,-1.0179 -19.89484,-3.0537 -6.10728,-2.0357 -11.41257,-5.0585 -15.91587,-9.0683 -4.50334,-4.0098 -8.05048,-9.0375 -10.64142,-15.0831 -2.52928,-6.0455 -3.79391,-13.0472 -3.7939,-21.0052 -10e-6,-6.6624 1.23378,-12.8931 3.70136,-18.6919 2.46757,-5.7988 5.89133,-10.8264 10.27129,-15.0831 4.44162,-4.2565 9.68521,-7.6185 15.7308,-10.0862 6.10721,-2.4675 12.80051,-3.7013 20.07991,-3.7014 7.89618,10e-5 14.71286,1.2339 20.45004,3.7014 5.73704,2.406 10.48712,5.6755 14.25026,9.8086 3.76296,4.0716 6.56983,8.8525 8.42061,14.3428 1.85058,5.4287 2.80676,11.1658 2.86856,17.2114 m -24.70662,-5.6446 c -0.18514,-3.2695 -0.77119,-6.2923 -1.75815,-9.0684 -0.92541,-2.7759 -2.28258,-5.1818 -4.0715,-7.2176 -1.72737,-2.0357 -3.8865,-3.6088 -6.47739,-4.7193 -2.52933,-1.172 -5.49042,-1.758 -8.88327,-1.7581 -3.08453,10e-5 -5.8914,0.6169 -8.42061,1.8507 -2.46762,1.1721 -4.62675,2.8069 -6.47739,4.9043 -1.78903,2.0358 -3.20789,4.4417 -4.25657,7.2176 -0.98707,2.7144 -1.57312,5.6447 -1.75815,8.7908 l 42.10303,0"
         style="line-height:120.00000477000000387%;fill:#ffffff;font-family:Nunito;-inkscape-font-specification:Nunito Bold"
         id="path3009" />
    </g>
  </g>
</svg>
