<?xml version="1.0" encoding="UTF-8" standalone="no"?>
<!-- Created with Inkscape (http://www.inkscape.org/) -->

<svg
   xmlns:dc="http://purl.org/dc/elements/1.1/"
   xmlns:cc="http://creativecommons.org/ns#"
   xmlns:rdf="http://www.w3.org/1999/02/22-rdf-syntax-ns#"
   xmlns:svg="http://www.w3.org/2000/svg"
   xmlns="http://www.w3.org/2000/svg"
   xmlns:sodipodi="http://sodipodi.sourceforge.net/DTD/sodipodi-0.dtd"
   xmlns:inkscape="http://www.inkscape.org/namespaces/inkscape"
   id="svg2"
   version="1.1"
   inkscape:version="0.48.4 r9939"
   width="80"
   height="80"
   xml:space="preserve"
   sodipodi:docname="Elegant_circle-icons_3.ai"><metadata
     id="metadata8"><rdf:RDF><cc:Work
         rdf:about=""><dc:format>image/svg+xml</dc:format><dc:type
           rdf:resource="http://purl.org/dc/dcmitype/StillImage" /><dc:title></dc:title></cc:Work></rdf:RDF></metadata><defs
     id="defs6"><clipPath
       clipPathUnits="userSpaceOnUse"
       id="clipPath16"><path
         d="M 0,64 64,64 64,0 0,0 0,64 z"
         id="path18" /></clipPath><clipPath
       clipPathUnits="userSpaceOnUse"
       id="clipPath28"><path
         d="m 17.4998,51.5002 12.0004,0 0,-43.0007 -12.0004,0 0,43.0007 z"
         id="path30" /></clipPath><clipPath
       clipPathUnits="userSpaceOnUse"
       id="clipPath48"><path
         d="m 35.4998,51.501 11.0004,0 0,-43.0015 -11.0004,0 0,43.0015 z"
         id="path50" /></clipPath><clipPath
       clipPathUnits="userSpaceOnUse"
       id="clipPath68"><path
         d="m 30.5,28.1245 3,0 0,-19.6245 -3,0 0,19.6245 z"
         id="path70" /></clipPath><clipPath
       clipPathUnits="userSpaceOnUse"
       id="clipPath96"><path
         d="m 15,44 34,0 0,-22 -34,0 0,22 z"
         id="path98" /></clipPath><clipPath
       clipPathUnits="userSpaceOnUse"
       id="clipPath116"><path
         d="m 21.5,45.5 21,0 0,-3 -21,0 0,3 z"
         id="path118" /></clipPath><clipPath
       clipPathUnits="userSpaceOnUse"
       id="clipPath132"><path
         d="m 21.5,23.5 21,0 0,-3 -21,0 0,3 z"
         id="path134" /></clipPath></defs><sodipodi:namedview
     pagecolor="#ffffff"
     bordercolor="#666666"
     borderopacity="1"
     objecttolerance="10"
     gridtolerance="10"
     guidetolerance="10"
     inkscape:pageopacity="0"
     inkscape:pageshadow="2"
     inkscape:window-width="640"
     inkscape:window-height="481"
     id="namedview4"
     showgrid="false"
     inkscape:zoom="1.475"
     inkscape:cx="61.440403"
     inkscape:cy="46.618411"
     inkscape:window-x="497"
     inkscape:window-y="37"
     inkscape:window-maximized="0"
     inkscape:current-layer="g14" /><g
     id="g10"
     inkscape:groupmode="layer"
     inkscape:label="Elegant_circle-icons_3"
     transform="matrix(1.25,0,0,-1.25,0,80)"><g
       id="g12"><g
         id="g14"
         clip-path="url(#clipPath16)"><g
           id="g20"
           transform="translate(64,32)" /><g
           id="g24"><g
             id="g26" /><g
             id="g32"><g
               clip-path="url(#clipPath28)"
               opacity="0.199997"
               id="g34"><g
                 transform="translate(28,50)"
                 id="g36"><path
                   d="M 0,0 -9,-40"
                   style="fill:#231f20;fill-opacity:1;fill-rule:nonzero;stroke:none"
                   id="path38" /></g><g
                 transform="translate(19.0015,8.4995)"
                 id="g40"><path
                   d="M 0,0 C -0.109,0 -0.22,0.012 -0.331,0.037 -1.139,0.219 -1.646,1.021 -1.465,1.83 l 9,40 c 0.182,0.808 0.986,1.316 1.793,1.134 0.808,-0.182 1.316,-0.984 1.134,-1.793 l -9,-40 C 1.305,0.474 0.686,0 0,0"
                   style="fill:#231f20;fill-opacity:1;fill-rule:nonzero;stroke:none"
                   id="path42" /></g></g></g></g><g
           id="g44"><g
             id="g46" /><g
             id="g52"><g
               clip-path="url(#clipPath48)"
               opacity="0.199997"
               id="g54"><g
                 transform="translate(37,50)"
                 id="g56"><path
                   d="M 0,0 8,-40"
                   style="fill:#231f20;fill-opacity:1;fill-rule:nonzero;stroke:none"
                   id="path58" /></g><g
                 transform="translate(44.9985,8.4995)"
                 id="g60"><path
                   d="m 0,0 c -0.701,0 -1.327,0.493 -1.469,1.207 l -8,40 c -0.163,0.812 0.364,1.602 1.177,1.764 0.812,0.166 1.602,-0.364 1.764,-1.177 l 8,-40 C 1.635,0.982 1.108,0.192 0.295,0.03 0.196,0.01 0.097,0 0,0"
                   style="fill:#231f20;fill-opacity:1;fill-rule:nonzero;stroke:none"
                   id="path62" /></g></g></g></g><g
           id="g64"><g
             id="g66" /><g
             id="g72"><g
               clip-path="url(#clipPath68)"
               opacity="0.199997"
               id="g74"><g
                 transform="translate(32,8.5)"
                 id="g76"><path
                   d="m 0,0 c -0.829,0 -1.5,0.671 -1.5,1.5 l 0,16.624 c 0,0.829 0.671,1.5 1.5,1.5 0.829,0 1.5,-0.671 1.5,-1.5 L 1.5,1.5 C 1.5,0.671 0.829,0 0,0"
                   style="fill:#231f20;fill-opacity:1;fill-rule:nonzero;stroke:none"
                   id="path78" /></g></g></g></g><g
           id="g80"
           transform="translate(28,52)"
           style="stroke:#343f51"><path
             d="M 0,0 -9,-40"
             style="fill:#f5cf87;fill-opacity:1;fill-rule:nonzero;stroke:#343f51;stroke-opacity:1;stroke-width:3;stroke-linecap:round;stroke-linejoin:round;stroke-miterlimit:10;stroke-dasharray:none"
             id="path82" /></g><g
           id="g84"
           transform="translate(37,52)"
           style="fill:#8ec63f;stroke:#343f51"><path
             d="M 0,0 8,-40"
             style="fill:#8ec63f;fill-opacity:1;fill-rule:nonzero;stroke:#343f51;stroke-opacity:1;stroke-width:3;stroke-linecap:round;stroke-linejoin:round;stroke-miterlimit:10;stroke-dasharray:none"
             id="path86" /></g><g
           id="g88"
           transform="translate(32,28.6246)"
           style="stroke:#343f51;fill:#343f51"><path
             d="M 0,0 0,-16.625"
             style="fill:#343f51;stroke:#343f51;stroke-opacity:1;stroke-width:3;stroke-linecap:round;stroke-linejoin:round;stroke-miterlimit:10;stroke-dasharray:none"
             id="path90" /></g><g
           id="g92"><g
             id="g94" /><g
             id="g100"><g
               clip-path="url(#clipPath96)"
               opacity="0.199997"
               id="g102"><g
                 transform="translate(49,23.7582)"
                 id="g104"><path
                   d="m 0,0 c 0,-0.971 -0.951,-1.758 -2.125,-1.758 l -29.75,0 C -33.049,-1.758 -34,-0.971 -34,0 l 0,18.484 c 0,0.971 0.951,1.758 2.125,1.758 l 29.75,0 C -0.951,20.242 0,19.455 0,18.484 L 0,0 z"
                   style="fill:#231f20;fill-opacity:1;fill-rule:nonzero;stroke:none"
                   id="path106" /></g></g></g></g><g
           id="g108"
           transform="translate(49,25.7582)"
           style="fill:#fbad17"><path
             d="m 0,0 c 0,-0.971 -0.951,-1.758 -2.125,-1.758 l -29.75,0 C -33.049,-1.758 -34,-0.971 -34,0 l 0,18.484 c 0,0.971 0.951,1.758 2.125,1.758 l 29.75,0 C -0.951,20.242 0,19.455 0,18.484 L 0,0 z"
             style="fill:#fbad17;fill-opacity:1;fill-rule:nonzero;stroke:none"
             id="path110" /></g><g
           id="g112"><g
             id="g114" /><g
             id="g120"><g
               clip-path="url(#clipPath116)"
               opacity="0.199997"
               id="g122"><g
                 transform="translate(41,42.5)"
                 id="g124"><path
                   d="m 0,0 -18,0 c -0.829,0 -1.5,0.671 -1.5,1.5 0,0.829 0.671,1.5 1.5,1.5 L 0,3 C 0.829,3 1.5,2.329 1.5,1.5 1.5,0.671 0.829,0 0,0"
                   style="fill:#231f20;fill-opacity:1;fill-rule:nonzero;stroke:none"
                   id="path126" /></g></g></g></g><g
           id="g128"><g
             id="g130" /><g
             id="g136"><g
               clip-path="url(#clipPath132)"
               opacity="0.199997"
               id="g138"><g
                 transform="translate(41,20.5)"
                 id="g140"><path
                   d="m 0,0 -18,0 c -0.829,0 -1.5,0.671 -1.5,1.5 0,0.829 0.671,1.5 1.5,1.5 L 0,3 C 0.829,3 1.5,2.329 1.5,1.5 1.5,0.671 0.829,0 0,0"
                   style="fill:#231f20;fill-opacity:1;fill-rule:nonzero;stroke:none"
                   id="path142" /></g></g></g></g><g
           id="g144"
           transform="translate(23,45.5)"
           style="fill:#8ec63f;stroke:#8ec63f"><path
             d="M 0,0 18,0"
             style="fill:#8ec63f;stroke:#8ec63f;stroke-opacity:1;stroke-width:3;stroke-linecap:round;stroke-linejoin:round;stroke-miterlimit:10;stroke-dasharray:none"
             id="path146" /></g><g
           id="g148"
           transform="translate(23,23.5)"
           style="stroke:#8ec63f;fill:#343f51"><path
             d="M 0,0 18,0"
             style="fill:#343f51;stroke:#8ec63f;stroke-opacity:1;stroke-width:3;stroke-linecap:round;stroke-linejoin:round;stroke-miterlimit:10;stroke-dasharray:none"
             id="path150" /></g><g
           id="g152"
           transform="translate(19.5,28)"
           style="stroke:#ffffff"><path
             d="m 0,0 c 0,0 11,18 11,10 0,-8 0,-10 2,-8 2,2 7,8 12,9"
             style="fill:none;stroke:#ffffff;stroke-opacity:1;stroke-width:3;stroke-linecap:round;stroke-linejoin:miter;stroke-miterlimit:10;stroke-dasharray:none"
             id="path154" /></g></g></g></g></svg>