<?xml version="1.0" encoding="UTF-8" standalone="no"?>
<!-- Created with Inkscape (http://www.inkscape.org/) -->

<svg
   xmlns:dc="http://purl.org/dc/elements/1.1/"
   xmlns:cc="http://creativecommons.org/ns#"
   xmlns:rdf="http://www.w3.org/1999/02/22-rdf-syntax-ns#"
   xmlns:svg="http://www.w3.org/2000/svg"
   xmlns="http://www.w3.org/2000/svg"
   xmlns:sodipodi="http://sodipodi.sourceforge.net/DTD/sodipodi-0.dtd"
   xmlns:inkscape="http://www.inkscape.org/namespaces/inkscape"
   id="svg2"
   version="1.1"
   inkscape:version="0.48.4 r9939"
   width="80"
   height="80"
   xml:space="preserve"
   sodipodi:docname="speed.svg"><metadata
     id="metadata8"><rdf:RDF><cc:Work
         rdf:about=""><dc:format>image/svg+xml</dc:format><dc:type
           rdf:resource="http://purl.org/dc/dcmitype/StillImage" /></cc:Work></rdf:RDF></metadata><defs
     id="defs6"><clipPath
       clipPathUnits="userSpaceOnUse"
       id="clipPath16"><path
         d="M 0,64 64,64 64,0 0,0 0,64 z"
         id="path18" /></clipPath><clipPath
       clipPathUnits="userSpaceOnUse"
       id="clipPath64"><path
         d="m 27,39.9994 15.0012,0 L 42.0012,25 27,25 27,39.9994 z"
         id="path66" /></clipPath></defs><sodipodi:namedview
     pagecolor="#ffffff"
     bordercolor="#666666"
     borderopacity="1"
     objecttolerance="10"
     gridtolerance="10"
     guidetolerance="10"
     inkscape:pageopacity="0"
     inkscape:pageshadow="2"
     inkscape:window-width="1364"
     inkscape:window-height="714"
     id="namedview4"
     showgrid="false"
     inkscape:zoom="2.085965"
     inkscape:cx="-73.856091"
     inkscape:cy="36.51794"
     inkscape:window-x="0"
     inkscape:window-y="24"
     inkscape:window-maximized="1"
     inkscape:current-layer="g14" /><g
     id="g10"
     inkscape:groupmode="layer"
     inkscape:label="Elegant_circle-icons"
     transform="matrix(1.25,0,0,-1.25,0,80)"><g
       id="g12"><g
         id="g14"
         clip-path="url(#clipPath16)"><g
           id="g20"
           transform="matrix(0.64045418,0,0,0.64045418,52.494534,32)"
           style="fill:#343f51"><path
             d="m 0,0 c 0,-17.673 -14.327,-32 -32,-32 -17.673,0 -32,14.327 -32,32 0,17.673 14.327,32 32,32 C -14.327,32 0,17.673 0,0"
             style="fill:#343f51;fill-opacity:1;fill-rule:nonzero;stroke:none"
             id="path22"
             inkscape:connector-curvature="0" /></g><g
           id="g24"
           transform="matrix(0.64045418,0,0,0.64045418,42.067492,26.501382)"
           style="fill:#ffffff"><path
             d="M 0,0 C 0.23,0.369 0.603,0.614 1.015,0.74 1.44,0.858 1.944,0.836 2.413,0.622 l 2.545,-1.167 c 0.469,-0.214 0.799,-0.614 0.941,-1.109 0.158,-0.5 0.087,-1.072 -0.222,-1.58 -0.3,-0.512 -0.75,-0.869 -1.23,-1.007 C 3.942,-4.366 3.426,-4.284 3.003,-3.989 L 0.7,-2.396 C 0.277,-2.102 0.005,-1.682 -0.104,-1.261 -0.235,-0.823 -0.221,-0.373 0,0"
             style="fill:#ffffff;fill-opacity:1;fill-rule:nonzero;stroke:none"
             id="path26"
             inkscape:connector-curvature="0" /></g><g
           id="g28"
           transform="matrix(0.64045418,0,0,0.64045418,22.038248,26.371626)"
           style="fill:#ffffff"><path
             d="M 0,0 C 0.461,-0.72 0.138,-1.814 -0.671,-2.409 L -2.953,-4.03 c -0.853,-0.626 -2.043,-0.295 -2.681,0.723 -0.611,1.033 -0.238,2.279 0.686,2.698 l 2.529,1.202 C -1.467,1.029 -0.437,0.734 0,0"
             style="fill:#ffffff;fill-opacity:1;fill-rule:nonzero;stroke:none"
             id="path30"
             inkscape:connector-curvature="0" /></g><g
           id="g32"
           transform="matrix(0.64045418,0,0,0.64045418,20.452741,32.139748)"
           style="fill:#ffffff"><path
             d="m 0,0 c 0.006,-0.854 -0.735,-1.633 -1.774,-1.746 l -2.788,-0.259 c -1.01,-0.111 -1.962,0.77 -1.971,1.97 0.031,1.199 0.902,2.09 1.928,1.991 L -1.815,1.73 C -0.789,1.63 0.032,0.856 0,0"
             style="fill:#ffffff;fill-opacity:1;fill-rule:nonzero;stroke:none"
             id="path34"
             inkscape:connector-curvature="0" /></g><g
           id="g36"
           transform="matrix(0.64045418,0,0,0.64045418,21.967607,37.931375)"
           style="fill:#ffffff"><path
             d="m 0,0 c -0.23,-0.369 -0.603,-0.614 -1.015,-0.74 -0.425,-0.118 -0.929,-0.096 -1.398,0.118 l -2.545,1.167 c -0.469,0.214 -0.799,0.614 -0.941,1.109 -0.158,0.5 -0.087,1.072 0.222,1.58 0.3,0.512 0.75,0.869 1.23,1.007 0.505,0.125 1.021,0.043 1.444,-0.252 L -0.7,2.396 C -0.277,2.102 -0.005,1.682 0.104,1.261 0.235,0.823 0.221,0.373 0,0"
             style="fill:#ffffff;fill-opacity:1;fill-rule:nonzero;stroke:none"
             id="path38"
             inkscape:connector-curvature="0" /></g><g
           id="g40"
           transform="matrix(0.64045418,0,0,0.64045418,26.172828,42.195711)"
           style="fill:#ffffff"><path
             d="M 0,0 C -0.72,-0.461 -1.814,-0.138 -2.409,0.671 L -4.03,2.953 c -0.626,0.853 -0.295,2.043 0.722,2.681 1.034,0.611 2.28,0.238 2.699,-0.686 L 0.593,2.419 C 1.029,1.467 0.734,0.437 0,0"
             style="fill:#ffffff;fill-opacity:1;fill-rule:nonzero;stroke:none"
             id="path42"
             inkscape:connector-curvature="0" /></g><g
           id="g44"
           transform="matrix(0.64045418,0,0,0.64045418,31.940887,43.781155)"
           style="fill:#ffffff"><path
             d="m 0,0 c -0.854,-0.006 -1.633,0.735 -1.746,1.774 l -0.259,2.788 c -0.111,1.01 0.77,1.962 1.97,1.971 C 1.164,6.502 2.055,5.631 1.956,4.605 L 1.73,1.815 C 1.63,0.789 0.856,-0.032 0,0"
             style="fill:#ffffff;fill-opacity:1;fill-rule:nonzero;stroke:none"
             id="path46"
             inkscape:connector-curvature="0" /></g><g
           id="g48"
           transform="matrix(0.64045418,0,0,0.64045418,37.732514,42.266289)"
           style="fill:#ffffff"><path
             d="m 0,0 c -0.369,0.23 -0.614,0.603 -0.74,1.015 -0.118,0.425 -0.096,0.929 0.118,1.398 l 1.167,2.545 c 0.214,0.469 0.614,0.799 1.109,0.941 0.5,0.158 1.072,0.087 1.58,-0.222 0.512,-0.3 0.869,-0.75 1.007,-1.23 C 4.366,3.942 4.284,3.426 3.989,3.003 L 2.396,0.7 C 2.102,0.277 1.682,0.005 1.261,-0.104 0.823,-0.235 0.373,-0.221 0,0"
             style="fill:#ffffff;fill-opacity:1;fill-rule:nonzero;stroke:none"
             id="path50"
             inkscape:connector-curvature="0" /></g><g
           id="g52"
           transform="matrix(0.64045418,0,0,0.64045418,41.99685,38.061132)"
           style="fill:#ffffff"><path
             d="M 0,0 C -0.461,0.72 -0.138,1.814 0.671,2.409 L 2.953,4.03 C 3.806,4.656 4.996,4.325 5.634,3.307 6.245,2.274 5.872,1.028 4.948,0.609 L 2.419,-0.593 C 1.467,-1.029 0.437,-0.734 0,0"
             style="fill:#ffffff;fill-opacity:1;fill-rule:nonzero;stroke:none"
             id="path54"
             inkscape:connector-curvature="0" /></g><g
           id="g56"
           transform="matrix(0.64045418,0,0,0.64045418,43.582358,32.293009)"
           style="fill:#ffffff"><path
             d="M 0,0 C -0.006,0.854 0.735,1.633 1.774,1.746 L 4.562,2.005 C 5.572,2.116 6.524,1.235 6.533,0.035 6.502,-1.164 5.631,-2.055 4.605,-1.956 L 1.815,-1.73 C 0.789,-1.63 -0.032,-0.856 0,0"
             style="fill:#ffffff;fill-opacity:1;fill-rule:nonzero;stroke:none"
             id="path58"
             inkscape:connector-curvature="0" /></g><g
           id="g60"
           transform="matrix(0.64045418,0,0,0.64045418,11.505467,11.505468)"><g
             id="g62" /><g
             id="g68"><g
               clip-path="url(#clipPath64)"
               id="g70"
               style="opacity:0.19999701"><g
                 transform="translate(41.6325,39.6325)"
                 id="g72"><path
                   d="m 0,0 c -0.413,0.413 -1.06,0.485 -1.545,0.177 l -4.653,-2.904 -3.107,-1.938 c 0,0 -10e-4,0 -10e-4,0 -0.11,0.007 -0.215,0.032 -0.327,0.032 -2.761,0 -5,-2.238 -5,-5 0,-0.112 0.026,-0.218 0.034,-0.329 0.165,-2.494 2.144,-4.473 4.64,-4.638 0.11,-0.007 0.214,-0.033 0.326,-0.033 2.762,0 5,2.239 5,5 0,0.112 -0.025,0.217 -0.032,0.327 0,0 0,10e-4 0,10e-4 l 1.938,3.105 2.904,4.655 C 0.487,-1.05 0.415,-0.41 0,0"
                   style="fill:#231f20;fill-opacity:1;fill-rule:nonzero;stroke:none"
                   id="path74"
                   inkscape:connector-curvature="0" /></g></g></g></g><g
           id="g76"
           transform="matrix(0.64045418,0,0,0.64045418,38.169176,38.169176)"
           style="fill:#fbad17"><path
             d="m 0,0 c -0.413,0.413 -1.06,0.485 -1.545,0.177 l -4.653,-2.904 -3.107,-1.938 c 0,0 -10e-4,0 -10e-4,0 -0.11,0.007 -0.215,0.032 -0.327,0.032 -2.761,0 -5,-2.238 -5,-5 0,-0.112 0.026,-0.218 0.034,-0.329 0.165,-2.494 2.144,-4.473 4.64,-4.638 0.11,-0.007 0.214,-0.033 0.326,-0.033 2.762,0 5,2.239 5,5 0,0.112 -0.025,0.217 -0.032,0.327 0,0 0,10e-4 0,10e-4 l 1.938,3.105 2.904,4.655 C 0.487,-1.05 0.415,-0.41 0,0"
             style="fill:#fbad17;fill-opacity:1;fill-rule:nonzero;stroke:none"
             id="path78"
             inkscape:connector-curvature="0" /></g><g
           id="g80"
           transform="matrix(0.64045418,0,0,0.64045418,35.202271,32)"
           style="fill:#8ec63f"><path
             d="m 0,0 c 0,-2.761 -2.239,-5 -5,-5 -2.761,0 -5,2.239 -5,5 0,2.761 2.239,5 5,5 2.761,0 5,-2.239 5,-5"
             style="fill:#8ec63f;fill-opacity:1;fill-rule:nonzero;stroke:none"
             id="path82"
             inkscape:connector-curvature="0" /></g></g></g></g></svg>