<?xml version="1.0" encoding="UTF-8" standalone="no"?>
<!-- Created with Inkscape (http://www.inkscape.org/) -->

<svg
   xmlns:dc="http://purl.org/dc/elements/1.1/"
   xmlns:cc="http://creativecommons.org/ns#"
   xmlns:rdf="http://www.w3.org/1999/02/22-rdf-syntax-ns#"
   xmlns:svg="http://www.w3.org/2000/svg"
   xmlns="http://www.w3.org/2000/svg"
   version="1.1"
   width="80"
   height="80"
   id="svg2"
   xml:space="preserve"><metadata
     id="metadata8"><rdf:RDF><cc:Work
         rdf:about=""><dc:format>image/svg+xml</dc:format><dc:type
           rdf:resource="http://purl.org/dc/dcmitype/StillImage" /><dc:title></dc:title></cc:Work></rdf:RDF></metadata><defs
     id="defs6"><clipPath
       id="clipPath16"><path
         d="M 0,64 64,64 64,0 0,0 0,64 z"
         id="path18" /></clipPath><clipPath
       id="clipPath28"><path
         d="m 12,43 40,0 0,-28 -40,0 0,28 z"
         id="path30" /></clipPath><clipPath
       id="clipPath52"><path
         d="m 12,43 40,0 0,-9 -40,0 0,9 z"
         id="path54" /></clipPath><clipPath
       id="clipPath68"><path
         d="m 24,39 16,0 0,-11 -16,0 0,11 z"
         id="path70" /></clipPath></defs><g
     transform="matrix(1.25,0,0,-1.25,0,80)"
     id="g10"><g
       id="g12"><g
         clip-path="url(#clipPath16)"
         id="g14"><g
           id="g24"><g
             id="g26" /><g
             id="g32"><g
               clip-path="url(#clipPath28)"
               id="g34"
               style="opacity:0.19999701"><g
                 transform="translate(52,19)"
                 id="g36"><path
                   d="m 0,0 c 0,-2.209 -1.791,-4 -4,-4 l -32,0 c -2.209,0 -4,1.791 -4,4 l 0,20 c 0,2.209 1.791,4 4,4 l 32,0 c 2.209,0 4,-1.791 4,-4 L 0,0 z"
                   id="path38"
                   style="fill:#231f20;fill-opacity:1;fill-rule:nonzero;stroke:none" /></g></g></g></g><g
           transform="translate(38,52)"
           id="g40"
           style="fill:#8ec63f"><path
             d="m 0,0 -12,0 c -2.209,0 -4,-1.791 -4,-4 l 0,-20 c 0,-2.209 1.791,-4 4,-4 l 12,0 c 2.209,0 4,1.791 4,4 L 4,-4 C 4,-1.791 2.209,0 0,0 m 0,-24 -12,0 0,20 12,0 0,-20 z"
             id="path42"
             style="fill:#8ec63f;fill-opacity:1;fill-rule:nonzero;stroke:none" /></g><g
           transform="translate(12,36)"
           id="g44"
           style="fill:#343f51"><path
             d="m 0,0 0,-15 c 0,-2.209 1.791,-4 4,-4 l 32,0 c 2.209,0 4,1.791 4,4 L 40,0 0,0 z"
             id="path46"
             style="fill:#343f51;fill-opacity:1;fill-rule:nonzero;stroke:none" /></g><g
           id="g48"
           style="fill:#7188b0;fill-opacity:1"><g
             id="g50"
             style="fill:#7188b0;fill-opacity:1" /><g
             id="g56"
             style="fill:#7188b0;fill-opacity:1"><g
               clip-path="url(#clipPath52)"
               id="g58"
               style="opacity:0.19999701;fill:#7188b0;fill-opacity:1"><g
                 transform="translate(52,39)"
                 id="g60"
                 style="fill:#7188b0;fill-opacity:1"><path
                   d="m 0,0 c 0,2.209 -1.791,4 -4,4 l -32,0 c -2.209,0 -4,-1.791 -4,-4 l 0,-5 40,0 0,5 z"
                   id="path62"
                   style="fill:#7188b0;fill-opacity:1;fill-rule:nonzero;stroke:none" /></g></g></g></g><g
           id="g64"><g
             id="g66" /><g
             id="g72"><g
               clip-path="url(#clipPath68)"
               id="g74"
               style="opacity:0.19999701"><g
                 transform="translate(40,32)"
                 id="g76"><path
                   d="m 0,0 c 0,-2.209 -1.791,-4 -4,-4 l -8,0 c -2.209,0 -4,1.791 -4,4 l 0,3 c 0,2.209 1.791,4 4,4 l 8,0 C -1.791,7 0,5.209 0,3 L 0,0 z"
                   id="path78"
                   style="fill:#231f20;fill-opacity:1;fill-rule:nonzero;stroke:none" /></g></g></g></g><g
           transform="translate(36,41)"
           id="g80"
           style="fill:#8ec63f"><path
             d="m 0,0 -8,0 c -2.209,0 -4,-1.791 -4,-4 l 0,-3 c 0,-2.209 1.791,-4 4,-4 l 8,0 c 2.209,0 4,1.791 4,4 l 0,3 C 4,-1.791 2.209,0 0,0 m 0,-7 -8,0 0,3 8,0 0,-3 z"
             id="path82"
             style="fill:#8ec63f;fill-opacity:1;fill-rule:nonzero;stroke:none" /></g><g
           transform="translate(52,41)"
           id="g84"
           style="fill:#343f51"><path
             d="m 0,0 c 0,2.209 -1.791,4 -4,4 l -32,0 c -2.209,0 -4,-1.791 -4,-4 l 0,-5 40,0 0,5 z"
             id="path86"
             style="fill:#343f51;fill-opacity:1;fill-rule:nonzero;stroke:none" /></g></g></g></g></svg>