<?xml version="1.0" encoding="UTF-8" standalone="no"?>
<!-- Created with Inkscape (http://www.inkscape.org/) -->

<svg
   xmlns:dc="http://purl.org/dc/elements/1.1/"
   xmlns:cc="http://creativecommons.org/ns#"
   xmlns:rdf="http://www.w3.org/1999/02/22-rdf-syntax-ns#"
   xmlns:svg="http://www.w3.org/2000/svg"
   xmlns="http://www.w3.org/2000/svg"
   xmlns:sodipodi="http://sodipodi.sourceforge.net/DTD/sodipodi-0.dtd"
   xmlns:inkscape="http://www.inkscape.org/namespaces/inkscape"
   version="1.1"
   width="100"
   height="100"
   id="svg4025"
   inkscape:version="0.91 r"
   sodipodi:docname="hackercafe-logo-circle-white.svg">
  <sodipodi:namedview
     pagecolor="#ffffff"
     bordercolor="#666666"
     borderopacity="1"
     objecttolerance="10"
     gridtolerance="10"
     guidetolerance="10"
     inkscape:pageopacity="0"
     inkscape:pageshadow="2"
     inkscape:window-width="782"
     inkscape:window-height="480"
     id="namedview12"
     showgrid="false"
     inkscape:zoom="2.36"
     inkscape:cx="50"
     inkscape:cy="50"
     inkscape:window-x="0"
     inkscape:window-y="0"
     inkscape:window-maximized="0"
     inkscape:current-layer="svg4025" />
  <defs
     id="defs4027">
    <clipPath
       id="clipPath3811">
      <g
         transform="matrix(10.554437,0,0,10.187306,-707.79415,-671.60089)"
         id="g3813"
         style="font-size:15.87021351px;font-style:normal;font-variant:normal;font-weight:bold;font-stretch:normal;text-align:start;line-height:120.00000477%;letter-spacing:-0.98692268px;word-spacing:-0.01056385px;writing-mode:lr-tb;text-anchor:start;fill:#ffffff;fill-opacity:1;stroke:#ffffff;stroke-width:0.99995732;stroke-miterlimit:4;display:inline;font-family:Nunito;-inkscape-font-specification:Nunito Bold">
        <path
           d="m 70.606845,163.66255 c 0.07875,-0.20997 0.190288,-0.40246 0.33465,-0.57744 0.14873,-0.17935 0.321523,-0.33247 0.518379,-0.45933 0.201224,-0.12686 0.424323,-0.22529 0.669298,-0.29528 0.244968,-0.07 0.505251,-0.10497 0.78085,-0.10498 0.284339,1e-5 0.557745,0.0524 0.820221,0.15748 0.266838,0.1006 0.503061,0.25373 0.70867,0.45932 0.205595,0.20123 0.369638,0.45495 0.492131,0.76116 0.122479,0.30623 0.183722,0.66493 0.18373,1.07614 l -0.0065,2.9659 c -8e-6,0.41558 -0.08532,0.73491 -0.255908,0.95803 -0.166238,0.2231 -0.444019,0.33464 -0.833344,0.33464 -0.367465,0 -0.627746,-0.11154 -0.780849,-0.33464 -0.148741,-0.22312 -0.223107,-0.54245 -0.223101,-0.95803 l 0,-2.87405 c -6e-6,-0.20559 -0.02844,-0.38494 -0.08532,-0.53806 -0.0525,-0.15747 -0.126866,-0.28871 -0.2231,-0.3937 -0.09188,-0.10499 -0.20342,-0.18372 -0.33465,-0.23623 -0.131239,-0.0524 -0.271223,-0.0788 -0.419952,-0.0788 -0.17936,1e-5 -0.349964,0.0307 -0.511816,0.0918 -0.161863,0.0569 -0.304032,0.14435 -0.426516,0.26246 -0.122488,0.11812 -0.220915,0.26685 -0.295278,0.44619 -0.06999,0.175 -0.104992,0.38278 -0.104988,0.62337 l 0,2.69688 c -4e-6,0.41557 -0.08532,0.73492 -0.255909,0.95804 -0.166233,0.22308 -0.444015,0.33464 -0.833344,0.33464 -0.367458,0 -0.627742,-0.11156 -0.780849,-0.33464 -0.148732,-0.22312 -0.223099,-0.54247 -0.223098,-0.95804 l -0.0065,-6.94232 c -10e-7,-0.41557 0.07436,-0.73492 0.2231,-0.95804 0.153107,-0.22309 0.413389,-0.33463 0.780848,-0.33464 0.389329,1e-5 0.66711,0.11155 0.833343,0.33464 0.170604,0.22312 0.255907,0.54247 0.255909,0.95804 l 0,2.95935"
           id="path3815"
           style="font-size:15.35960865px;line-height:120.00000477%;word-spacing:0px;fill:#ffffff;stroke:none;font-family:Nunito;-inkscape-font-specification:Nunito Bold" />
      </g>
    </clipPath>
  </defs>
  <metadata
     id="metadata4030">
    <rdf:RDF>
      <cc:Work
         rdf:about="">
        <dc:format>image/svg+xml</dc:format>
        <dc:type
           rdf:resource="http://purl.org/dc/dcmitype/StillImage" />
        <dc:title></dc:title>
      </cc:Work>
    </rdf:RDF>
  </metadata>
  <g
     transform="translate(0,-952.36218)"
     id="layer1"
     style="fill:#ffffff">
    <path
       d="m 50,952.36218 c -6.124251,0 -11.98349,1.11003 -17.40625,3.125 0.762469,0.48404 1.429071,1.05093 1.96875,1.75 1.800629,2.27299 2.718729,5.51646 2.71875,9.75 l 0,30.09375 c 0.829679,-2.11373 2.023058,-4.04802 3.53125,-5.8125 1.569761,-1.82709 3.391046,-3.39514 5.46875,-4.6875 2.123806,-1.29236 4.476927,-2.28699 7.0625,-3 2.585499,-0.71311 5.309958,-1.0624 8.21875,-1.0625 3.001038,1e-4 5.885964,0.52327 8.65625,1.59375 2.816325,1.02484 5.329913,2.59309 7.5,4.6875 2.169939,2.04999 3.894655,4.63055 5.1875,7.75 1.292697,3.11966 1.937416,6.77962 1.9375,10.96872 l -0.0625,30.2188 c -4e-6,0.1945 -0.02745,0.3721 -0.03125,0.5625 9.407276,-9.0917 15.25,-21.8217 15.25,-35.9375 0,-27.61427 -22.385763,-50.00002 -50,-50.00002 z m -34.8125,14.125 C 5.8236964,975.57407 0,988.28348 0,1002.3622 c 0,14.1106 5.8488314,26.8465 15.25,35.9375 -0.0033,-0.1902 0,-0.3682 0,-0.5625 l -0.0625,-70.75002 c 0,-0.17273 -0.0026,-0.33054 0,-0.5 z m 36.28125,29.25 c -1.893044,1e-4 -3.697993,0.31506 -5.40625,0.9375 -1.708373,0.57966 -3.20725,1.48428 -4.5,2.6875 -1.292792,1.20332 -2.34014,2.70422 -3.125,4.53122 -0.738705,1.7828 -1.093792,3.8928 -1.09375,6.3438 l 0,27.5 c -4.2e-5,4.2335 -0.918279,7.477 -2.71875,9.75 -0.54828,0.7102 -1.221772,1.293 -2,1.7812 5.412192,2.0061 11.265014,3.0938 17.375,3.0938 5.995211,0 11.735752,-1.0653 17.0625,-3 -0.793312,-0.5059 -1.49091,-1.115 -2.03125,-1.875 -1.569878,-2.273 -2.343813,-5.5164 -2.34375,-9.75 l 0,-29.2813 c -6.3e-5,-2.0944 -0.305914,-3.9401 -0.90625,-5.5 -0.554108,-1.6042 -1.328054,-2.9304 -2.34375,-3.99997 -0.969742,-1.06956 -2.146191,-1.87131 -3.53125,-2.40625 -1.385154,-0.53381 -2.867749,-0.8125 -4.4375,-0.8125 z"
       id="path3012"
       style="fill:#ffffff;fill-opacity:1;stroke:none" />
    <g
       transform="matrix(10.554437,0,0,10.187306,-707.79415,-671.60089)"
       id="flowRoot3014"
       style="font-size:15.87021351px;font-style:normal;font-variant:normal;font-weight:bold;font-stretch:normal;text-align:start;line-height:120.00000477%;letter-spacing:-0.98692268px;word-spacing:-0.01056385px;writing-mode:lr-tb;text-anchor:start;fill:#ffffff;fill-opacity:1;stroke:#ffffff;stroke-width:0.99995732;stroke-miterlimit:4;display:inline;font-family:Nunito;-inkscape-font-specification:Nunito Bold" />
    <rect
       width="100"
       height="100"
       x="0"
       y="0"
       transform="translate(0,952.36218)"
       id="rect3860"
       style="fill:#ffffff;fill-opacity:0;stroke:none" />
  </g>
</svg>
